<?xml version="1.0" encoding="UTF-8" standalone="no"?>
<!DOCTYPE svg PUBLIC "-//W3C//DTD SVG 1.1//EN" "http://www.w3.org/Graphics/SVG/1.1/DTD/svg11.dtd">
<svg width="100%" height="100%" viewBox="0 0 1280 720" version="1.1" xmlns="http://www.w3.org/2000/svg" xmlns:xlink="http://www.w3.org/1999/xlink" xml:space="preserve" xmlns:serif="http://www.serif.com/" style="fill-rule:evenodd;clip-rule:evenodd;stroke-linejoin:round;stroke-miterlimit:2;">
    <path d="M1280,0L1280,720L0,720L0,0L1280,0ZM357.22,643.732L284.206,643.732L284.206,698.434L357.22,698.434L357.22,643.732ZM99.302,643.732L26.288,643.732L26.288,698.434L99.302,698.434L99.302,643.732ZM99.302,21.566L26.288,21.566L26.288,76.268L99.302,76.268L99.302,21.566ZM615.137,643.732L542.123,643.732L542.123,698.434L615.137,698.434L615.137,643.732ZM1002.01,643.732L929,643.732L929,698.434L1002.01,698.434L1002.01,643.732ZM1259.93,643.732L1186.92,643.732L1186.92,698.434L1259.93,698.434L1259.93,643.732ZM486.179,643.732L413.165,643.732L413.165,698.434L486.179,698.434L486.179,643.732ZM357.22,21.566L284.206,21.566L284.206,76.268L357.22,76.268L357.22,21.566ZM873.055,643.732L800.041,643.732L800.041,698.434L873.055,698.434L873.055,643.732ZM744.096,643.732L671.082,643.732L671.082,698.434L744.096,698.434L744.096,643.732ZM228.261,643.732L155.247,643.732L155.247,698.434L228.261,698.434L228.261,643.732ZM1130.97,643.732L1057.96,643.732L1057.96,698.434L1130.97,698.434L1130.97,643.732ZM615.137,21.566L542.123,21.566L542.123,76.268L615.137,76.268L615.137,21.566ZM486.179,21.566L413.165,21.566L413.165,76.268L486.179,76.268L486.179,21.566ZM744.096,21.566L671.082,21.566L671.082,76.268L744.096,76.268L744.096,21.566ZM228.261,21.566L155.247,21.566L155.247,76.268L228.261,76.268L228.261,21.566ZM1130.97,21.566L1057.96,21.566L1057.96,76.268L1130.97,76.268L1130.97,21.566ZM873.055,21.566L800.041,21.566L800.041,76.268L873.055,76.268L873.055,21.566ZM1259.93,21.566L1186.92,21.566L1186.92,76.268L1259.93,76.268L1259.93,21.566ZM1002.01,21.566L929,21.566L929,76.268L1002.01,76.268L1002.01,21.566ZM1180.29,97.834L99.712,97.834C71.659,97.834 48.917,120.576 48.917,148.629L48.917,571.371C48.917,599.424 71.659,622.166 99.712,622.166L1180.29,622.166C1208.34,622.166 1231.08,599.424 1231.08,571.371L1231.08,148.629C1231.08,120.576 1208.34,97.834 1180.29,97.834Z" fill="#ffffff30"/>
</svg>
