<?xml version="1.0" encoding="utf-8"?>
<svg xmlns="http://www.w3.org/2000/svg">
    <symbol id="vk-page" viewBox="0 0 24 24" fill="none" xmlns="http://www.w3.org/2000/svg">
        <path d="M15.319 1.19995H8.69216C2.63984 1.19995 1.2002 2.63959 1.2002 8.68111V15.308C1.2002 21.3592 2.62904 22.8 8.68136 22.8H15.3082C21.3595 22.8 22.8002 21.3711 22.8002 15.3188V8.69191C22.8002 2.63959 21.3714 1.19995 15.319 1.19995ZM18.6379 16.6116H17.0622C16.466 16.6116 16.2867 16.1288 15.2175 15.0596C14.2844 14.16 13.8902 14.0476 13.6537 14.0476C13.3275 14.0476 13.2379 14.1373 13.2379 14.5876V16.0046C13.2379 16.388 13.1137 16.6126 12.1125 16.6126C11.1409 16.5473 10.1987 16.2521 9.36348 15.7514C8.52829 15.2506 7.82402 14.5586 7.30868 13.7323C6.08522 12.2095 5.23393 10.4222 4.82252 8.51263C4.82252 8.27611 4.91216 8.06227 5.36252 8.06227H6.93716C7.34216 8.06227 7.48796 8.24263 7.64672 8.65843C8.41136 10.9092 9.716 12.8661 10.2452 12.8661C10.4482 12.8661 10.5368 12.7765 10.5368 12.27V9.95227C10.4698 8.89495 9.90824 8.80531 9.90824 8.42299C9.91545 8.32215 9.96166 8.22809 10.0371 8.16074C10.1125 8.0934 10.2111 8.05808 10.3122 8.06227H12.7875C13.1256 8.06227 13.2379 8.23075 13.2379 8.63575V11.7634C13.2379 12.1015 13.3837 12.2138 13.4852 12.2138C13.6882 12.2138 13.8448 12.1015 14.2164 11.73C15.0143 10.7568 15.6663 9.67263 16.1517 8.51155C16.2013 8.37208 16.2952 8.25268 16.419 8.17156C16.5429 8.09044 16.6898 8.05206 16.8375 8.06227H18.4132C18.8852 8.06227 18.9856 8.29879 18.8852 8.63575C18.3122 9.91926 17.6033 11.1376 16.7706 12.27C16.601 12.5292 16.533 12.6642 16.7706 12.9676C16.9272 13.2042 17.479 13.6653 17.8506 14.1038C18.3905 14.6423 18.8388 15.2654 19.1779 15.9484C19.3129 16.3869 19.0872 16.6116 18.6379 16.6116Z" fill="currentColor"/>
    </symbol>

    <symbol id="vk-group" viewBox="0 0 24 24" fill="none" xmlns="http://www.w3.org/2000/svg">
        <path d="M15.319,1.2C21.371,1.2 22.8,2.64 22.8,8.692L22.8,15.319C22.8,21.371 21.36,22.8 15.308,22.8L8.681,22.8C2.629,22.8 1.2,21.359 1.2,15.308L1.2,8.681C1.2,2.64 2.64,1.2 8.692,1.2L15.319,1.2ZM12.121,17.687C13.001,17.687 13.746,17.562 14.356,17.312C14.97,17.062 15.436,16.69 15.754,16.195C16.072,15.695 16.231,15.081 16.231,14.352C16.231,13.893 16.132,13.463 15.934,13.062C15.741,12.661 15.431,12.336 15.004,12.086C14.816,11.972 14.6,11.884 14.358,11.823C14.465,11.78 14.566,11.733 14.66,11.68C15.113,11.43 15.444,11.107 15.653,10.711C15.866,10.315 15.973,9.883 15.973,9.414C15.973,8.883 15.876,8.424 15.684,8.039C15.491,7.648 15.212,7.325 14.848,7.07C14.483,6.815 14.038,6.625 13.512,6.5C12.991,6.375 12.4,6.312 11.738,6.312L7.77,6.312L7.77,17.687L12.121,17.687ZM10.113,12.695L12.223,12.695C12.624,12.695 12.947,12.763 13.192,12.898C13.436,13.029 13.613,13.216 13.723,13.461C13.837,13.706 13.895,13.995 13.895,14.328C13.895,14.625 13.832,14.888 13.707,15.117C13.582,15.346 13.389,15.529 13.129,15.664C12.869,15.794 12.533,15.859 12.121,15.859L10.113,15.859L10.113,12.695ZM11.738,11.086L10.113,11.086L10.113,8.148L11.738,8.148C12.176,8.148 12.533,8.198 12.809,8.297C13.09,8.396 13.296,8.555 13.426,8.773C13.561,8.992 13.629,9.279 13.629,9.633C13.629,9.945 13.559,10.211 13.418,10.43C13.283,10.643 13.077,10.807 12.801,10.922C12.525,11.031 12.171,11.086 11.738,11.086Z" fill="currentColor"/>
    </symbol>
    <symbol id="vk-stories" viewBox="0 0 24 24" fill="none" xmlns="http://www.w3.org/2000/svg">
        <path d="M23.273,8.404L23.273,15.385C23.443,22.917 20.466,23.383 13.689,23.266L8.395,23.266C2.016,23.266 0.511,21.749 0.511,15.373C0.459,7.578 0.279,3.837 2.059,2.057C3.841,0.276 7.587,0.46 15.389,0.51C21.768,0.51 23.273,2.028 23.273,8.404ZM15.96,9.48C16.152,10.341 14.92,10.639 14.28,10.68C14.28,9.912 13.793,9.07 13.32,8.88C12.72,8.64 11.424,8.376 10.56,8.76C9.48,9.24 9.436,10.176 9.84,10.68C10.32,11.28 10.87,11.251 11.923,11.518C12.701,11.715 13.566,11.934 14.28,12.24C15.75,12.87 15.934,13.5 16.117,14.13C16.107,14.036 16.144,14.22 16.117,14.13C16.2,14.88 16.224,16.349 15.36,17.04C14.16,18 12.84,18 11.52,18C9.789,18 8.8,17.2 8.28,16.68C7.8,16.08 7.152,15.432 7.44,14.76C7.728,14.088 8.68,14 9.12,14.04C9.127,14.055 9.132,14.095 9.139,14.156C9.17,14.432 9.25,15.13 9.84,15.72C11.28,16.776 13.342,16.384 13.8,15.84C15.15,14.237 13.355,13.822 11.503,13.27C10.721,13.037 9.96,12.84 9.36,12.6C8.64,12.24 7.32,10.92 7.68,9.48C8.068,7.927 9,7.08 11.88,6.96C14.76,6.84 15.72,8.404 15.96,9.48Z" style="fill:white;"/>
    </symbol>

<!--    <symbol id="vk-stories" width="100%" height="100%" viewBox="0 0 24 24" xmlns="http://www.w3.org/2000/svg" xml:space="preserve">-->
<!--        <path d="M15.319,1.2C21.371,1.2 22.8,2.64 22.8,8.692L22.8,15.319C22.8,21.371 21.36,22.8 15.308,22.8L8.681,22.8C2.629,22.8 1.2,21.359 1.2,15.308L1.2,8.681C1.2,2.64 2.64,1.2 8.692,1.2L15.319,1.2ZM12.121,17.687C13.001,17.687 13.746,17.562 14.356,17.312C14.97,17.062 15.436,16.69 15.754,16.195C16.072,15.695 16.231,15.081 16.231,14.352C16.231,13.893 16.132,13.463 15.934,13.062C15.741,12.661 15.431,12.336 15.004,12.086C14.816,11.972 14.6,11.884 14.358,11.823C14.465,11.78 14.566,11.733 14.66,11.68C15.113,11.43 15.444,11.107 15.653,10.711C15.866,10.315 15.973,9.883 15.973,9.414C15.973,8.883 15.876,8.424 15.684,8.039C15.491,7.648 15.212,7.325 14.848,7.07C14.483,6.815 14.038,6.625 13.512,6.5C12.991,6.375 12.4,6.312 11.738,6.312L7.77,6.312L7.77,17.687L12.121,17.687ZM10.113,12.695L12.223,12.695C12.624,12.695 12.947,12.763 13.192,12.898C13.436,13.029 13.613,13.216 13.723,13.461C13.837,13.706 13.895,13.995 13.895,14.328C13.895,14.625 13.832,14.888 13.707,15.117C13.582,15.346 13.389,15.529 13.129,15.664C12.869,15.794 12.533,15.859 12.121,15.859L10.113,15.859L10.113,12.695ZM11.738,11.086L10.113,11.086L10.113,8.148L11.738,8.148C12.176,8.148 12.533,8.198 12.809,8.297C13.09,8.396 13.296,8.555 13.426,8.773C13.561,8.992 13.629,9.279 13.629,9.633C13.629,9.945 13.559,10.211 13.418,10.43C13.283,10.643 13.077,10.807 12.801,10.922C12.525,11.031 12.171,11.086 11.738,11.086Z" fill="currentColor"/>-->
<!--    </symbol>-->
<!--    <symbol id="vk-stories" viewBox="0 0 24 24" fill="none" xmlns="http://www.w3.org/2000/svg">-->
<!--        <path d="M15.319 1.19995H8.69215C2.63983 1.19995 1.2002 2.63959 1.2002 8.68111V15.308C1.2002 21.3592 2.62904 22.8 8.68136 22.8H15.3082C21.3595 22.8 22.8002 21.3711 22.8002 15.3188V8.69191C22.8002 2.63959 21.3714 1.19995 15.319 1.19995ZM18.6379 16.6116H17.0622C16.466 16.6116 16.2867 16.1288 15.2175 15.0596C14.2844 14.16 13.8902 14.0476 13.6537 14.0476C13.3275 14.0476 13.2379 14.1373 13.2379 14.5876V16.0046C13.2379 16.388 13.1137 16.6126 12.1125 16.6126C11.1409 16.5473 10.1987 16.2521 9.36347 15.7514C8.52828 15.2506 7.82402 14.5586 7.30868 13.7323C6.08522 12.2095 5.23393 10.4222 4.82252 8.51263C4.82252 8.27611 4.91216 8.06227 5.36252 8.06227H6.93716C7.34216 8.06227 7.48796 8.24263 7.64672 8.65843C8.41136 10.9092 9.716 12.8661 10.2452 12.8661C10.4482 12.8661 10.5368 12.7765 10.5368 12.27V9.95227C10.4698 8.89495 9.90824 8.80531 9.90824 8.42299C9.91545 8.32215 9.96166 8.22809 10.0371 8.16074C10.1125 8.0934 10.2111 8.05808 10.3122 8.06227H12.7875C13.1256 8.06227 13.2379 8.23075 13.2379 8.63575V11.7634C13.2379 12.1015 13.3837 12.2138 13.4852 12.2138C13.6882 12.2138 13.8448 12.1015 14.2164 11.73C15.0143 10.7568 15.6663 9.67263 16.1517 8.51155C16.2013 8.37208 16.2952 8.25268 16.419 8.17156C16.5429 8.09044 16.6898 8.05206 16.8375 8.06227H18.4132C18.8852 8.06227 18.9856 8.29879 18.8852 8.63575C18.3122 9.91926 17.6033 11.1376 16.7706 12.27C16.601 12.5292 16.533 12.6642 16.7706 12.9676C16.9272 13.2042 17.479 13.6653 17.8506 14.1038C18.3905 14.6423 18.8388 15.2654 19.1779 15.9484C19.3129 16.3869 19.0872 16.6116 18.6379 16.6116Z" fill="white"/>-->
<!--        <rect x="4" y="6" width="16" height="13" fill="white"/>-->
<!--        <path d="M12.3594 12.0078H9.4375L9.42188 10.3984H11.875C12.3073 10.3984 12.6615 10.3438 12.9375 10.2344C13.2135 10.1198 13.4193 9.95573 13.5547 9.74219C13.6953 9.52344 13.7656 9.25781 13.7656 8.94531C13.7656 8.59115 13.6979 8.30469 13.5625 8.08594C13.4323 7.86719 13.2266 7.70833 12.9453 7.60938C12.6693 7.51042 12.3125 7.46094 11.875 7.46094H10.25V17H7.90625V5.625H11.875C12.5365 5.625 13.1276 5.6875 13.6484 5.8125C14.1745 5.9375 14.6198 6.1276 14.9844 6.38281C15.349 6.63802 15.6276 6.96094 15.8203 7.35156C16.013 7.73698 16.1094 8.19531 16.1094 8.72656C16.1094 9.19531 16.0026 9.6276 15.7891 10.0234C15.5807 10.4193 15.25 10.7422 14.7969 10.9922C14.349 11.2422 13.763 11.3802 13.0391 11.4062L12.3594 12.0078ZM12.2578 17H8.79688L9.71094 15.1719H12.2578C12.6693 15.1719 13.0052 15.1068 13.2656 14.9766C13.526 14.8411 13.7188 14.6589 13.8438 14.4297C13.9688 14.2005 14.0312 13.9375 14.0312 13.6406C14.0312 13.3073 13.974 13.0182 13.8594 12.7734C13.75 12.5286 13.5729 12.3411 13.3281 12.2109C13.0833 12.0755 12.7604 12.0078 12.3594 12.0078H10.1016L10.1172 10.3984H12.9297L13.4688 11.0312C14.1615 11.0208 14.7188 11.1432 15.1406 11.3984C15.5677 11.6484 15.8776 11.974 16.0703 12.375C16.2682 12.776 16.3672 13.2057 16.3672 13.6641C16.3672 14.3932 16.2083 15.0078 15.8906 15.5078C15.5729 16.0026 15.1068 16.375 14.4922 16.625C13.8828 16.875 13.138 17 12.2578 17Z" fill="#151515"/>-->
<!--    </symbol>-->
</svg>
