<?xml version="1.0" standalone="no"?>
<!DOCTYPE svg PUBLIC "-//W3C//DTD SVG 20010904//EN"
 "http://www.w3.org/TR/2001/REC-SVG-20010904/DTD/svg10.dtd">
<svg version="1.0" xmlns="http://www.w3.org/2000/svg"
 width="1280.000000pt" height="720.000000pt" viewBox="0 0 1280.000000 720.000000"
 preserveAspectRatio="xMidYMid meet">
<g transform="translate(0.000000,720.000000) scale(0.100000,-0.100000)"
fill="#ffffff50" stroke="none">
<path d="M45 6118 c-3 -7 -4 -1145 -3 -2528 l3 -2515 6355 0 6355 0 0 60 0 60
-50 5 -50 5 -3 192 -2 192 52 3 53 3 3 2003 c2 1900 1 2003 -15 2009 -10 4
-21 11 -25 17 -10 14 -10 348 0 362 4 6 15 13 25 17 15 6 18 16 15 64 l-3 58
-6353 3 c-5077 2 -6354 0 -6357 -10z m480 -140 c3 -13 4 -99 3 -193 l-3 -170
-192 -3 -193 -2 0 188 c0 104 3 192 7 195 3 4 89 7 189 7 182 0 184 0 189 -22z
m733 10 c13 -13 18 -331 6 -362 -5 -14 -32 -16 -195 -16 l-189 0 0 188 c0 104
3 192 7 195 12 13 358 8 371 -5z m750 -186 l2 -192 -187 2 -188 3 -3 180 c-1
98 0 185 3 192 3 11 44 13 187 11 l183 -3 3 -193z m740 0 l2 -192 -187 2 -188
3 -3 180 c-1 98 0 185 3 192 3 11 44 13 187 11 l183 -3 3 -193z m737 3 l0
-190 -187 -3 -188 -2 0 188 c0 104 3 192 7 196 4 3 88 5 187 4 l181 -3 0 -190z
m740 0 l0 -190 -187 -3 -188 -2 0 188 c0 104 3 192 7 196 4 3 88 5 187 4 l181
-3 0 -190z m740 0 l0 -190 -184 -3 c-141 -2 -186 1 -193 10 -13 22 -10 352 4
366 9 9 61 12 193 10 l180 -3 0 -190z m740 173 c3 -13 4 -99 3 -193 l-3 -170
-184 -3 c-141 -2 -186 1 -193 10 -9 15 -11 338 -2 362 5 14 32 16 190 16 182
0 184 0 189 -22z m739 6 c9 -24 7 -347 -2 -362 -7 -9 -52 -12 -193 -10 l-184
3 -3 170 c-1 94 0 180 3 193 5 22 7 22 189 22 158 0 185 -2 190 -16z m734 4
c14 -14 17 -344 4 -366 -7 -9 -52 -12 -193 -10 l-184 3 -3 180 c-1 98 0 185 2
192 7 18 356 19 374 1z m740 -186 l2 -192 -187 2 -188 3 -3 180 c-1 98 0 185
3 192 3 11 44 13 187 11 l183 -3 3 -193z m740 0 l2 -192 -187 2 -188 3 -3 180
c-1 98 0 185 3 192 3 11 44 13 187 11 l183 -3 3 -193z m737 3 l0 -190 -185 0
-185 0 -3 180 c-1 98 0 185 3 192 3 11 44 13 187 11 l183 -3 0 -190z m740 0
l0 -190 -187 -3 -188 -2 0 188 c0 104 3 192 7 196 4 3 88 5 187 4 l181 -3 0
-190z m740 0 l0 -190 -187 -3 -188 -2 0 188 c0 104 3 192 7 196 4 3 88 5 187
4 l181 -3 0 -190z m740 0 l0 -190 -187 -3 -188 -2 0 188 c0 104 3 192 7 196 4
3 88 5 187 4 l181 -3 0 -190z m740 173 c3 -13 4 -99 3 -193 l-3 -170 -184 -3
c-141 -2 -186 1 -193 10 -9 15 -11 338 -2 362 5 14 32 16 190 16 182 0 184 0
189 -22z m-6552 -553 c196 -41 372 -208 422 -400 13 -52 15 -231 15 -1425 0
-1194 -2 -1373 -15 -1425 -52 -199 -240 -371 -442 -404 -50 -9 -725 -11 -2518
-9 l-2450 3 -66 22 c-167 57 -305 195 -362 362 l-22 66 -3 1355 c-2 1208 -1
1363 13 1427 29 130 104 248 208 326 70 53 116 75 200 97 69 18 159 19 2512
19 2080 1 2450 -1 2508 -14z m6308 -12 c169 -58 309 -200 362 -368 l22 -70 0
-1375 0 -1375 -22 -70 c-53 -168 -193 -310 -362 -368 l-66 -22 -2450 -3
c-1793 -2 -2468 0 -2518 9 -202 33 -390 205 -442 404 -13 52 -15 231 -15 1425
0 1194 2 1373 15 1425 50 190 225 358 418 400 51 11 483 13 2527 12 l2465 -2
66 -22z m-11603 -4015 l-3 -193 -185 0 -185 0 -3 180 c-1 98 0 185 2 192 4 10
49 13 191 13 l185 0 -2 -192z m737 -3 l0 -190 -185 0 -185 0 -3 180 c-1 98 0
185 3 192 3 11 44 13 187 11 l183 -3 0 -190z m729 179 c12 -32 7 -339 -7 -357
-11 -16 -32 -17 -192 -15 l-180 3 -3 180 c-1 98 0 185 2 192 4 10 49 13 190
13 158 0 185 -2 190 -16z m734 -176 l-3 -193 -185 0 -185 0 -3 180 c-1 98 0
185 2 192 4 10 49 13 191 13 l185 0 -2 -192z m740 0 l-3 -193 -185 0 -185 0
-3 180 c-1 98 0 185 2 192 4 10 49 13 191 13 l185 0 -2 -192z m740 0 l-3 -193
-185 0 -185 0 -3 180 c-1 98 0 185 2 192 4 10 49 13 191 13 l185 0 -2 -192z
m737 -3 l0 -190 -185 0 -185 0 -3 193 -2 192 187 -2 188 -3 0 -190z m740 0 l0
-190 -185 0 -185 0 -3 193 -2 192 187 -2 188 -3 0 -190z m723 3 l-3 -193 -185
0 -185 0 -3 180 c-1 98 0 185 2 192 4 10 49 13 191 13 l185 0 -2 -192z m740 0
l-3 -193 -185 0 -185 0 -3 180 c-1 98 0 185 2 192 4 10 49 13 191 13 l185 0
-2 -192z m737 -3 l0 -190 -185 0 -185 0 -3 180 c-1 98 0 185 3 192 3 11 44 13
187 11 l183 -3 0 -190z m740 0 l0 -190 -185 0 -185 0 -3 193 -2 192 187 -2
188 -3 0 -190z m740 0 l0 -190 -185 0 -185 0 -3 193 -2 192 187 -2 188 -3 0
-190z m740 0 l0 -190 -185 0 -185 0 -3 193 -2 192 187 -2 188 -3 0 -190z m723
3 l-3 -193 -185 0 -185 0 -3 180 c-1 98 0 185 2 192 4 10 49 13 191 13 l185 0
-2 -192z m740 0 l-3 -193 -185 0 -185 0 -3 180 c-1 98 0 185 2 192 4 10 49 13
191 13 l185 0 -2 -192z m737 -3 l0 -190 -185 0 -185 0 -3 193 -2 192 187 -2
188 -3 0 -190z"/>
</g>
</svg>
