<?xml version="1.0" encoding="UTF-8" standalone="no"?>
<svg fill="currentColor" viewBox="0 0 24 24" version="1.1" xmlns="http://www.w3.org/2000/svg" xml:space="preserve">
    <path d="M15.319,1.2C21.371,1.2 22.8,2.64 22.8,8.692L22.8,15.319C22.8,21.371 21.36,22.8 15.308,22.8L8.681,22.8C2.629,22.8 1.2,21.36 1.2,15.307L1.2,8.681C1.2,2.64 2.64,1.2 8.693,1.2L15.319,1.2ZM10.49,13.879L10.27,17.164C10.592,17.164 10.734,17.016 10.915,16.842L12.462,15.337L15.682,17.715C16.275,18.042 16.702,17.874 16.849,17.165L18.963,7.206C19.179,6.338 18.632,5.946 18.065,6.202L5.654,10.988C4.807,11.328 4.812,11.8 5.499,12.011L8.685,13.005L16.058,8.354C16.406,8.141 16.725,8.256 16.463,8.488L10.49,13.879Z"/>
</svg>
