<?xml version="1.0" encoding="UTF-8" standalone="no"?>
<svg viewBox="0 0 24 24" fill="currentColor" version="1.1" xmlns="http://www.w3.org/2000/svg" xml:space="preserve">
    <path d="M15.319,1.2C21.371,1.2 22.8,2.64 22.8,8.692L22.8,15.319C22.8,21.371 21.36,22.8 15.308,22.8L8.681,22.8C2.629,22.8 1.2,21.359 1.2,15.308L1.2,8.681C1.2,2.64 2.64,1.2 8.692,1.2L15.319,1.2ZM12.121,17.687C13.001,17.687 13.746,17.562 14.356,17.312C14.97,17.062 15.436,16.69 15.754,16.195C16.072,15.695 16.231,15.081 16.231,14.352C16.231,13.893 16.132,13.463 15.934,13.062C15.741,12.661 15.431,12.336 15.004,12.086C14.816,11.972 14.6,11.884 14.358,11.823C14.465,11.78 14.566,11.733 14.66,11.68C15.113,11.43 15.444,11.107 15.653,10.711C15.866,10.315 15.973,9.883 15.973,9.414C15.973,8.883 15.876,8.424 15.684,8.039C15.491,7.648 15.212,7.325 14.848,7.07C14.483,6.815 14.038,6.625 13.512,6.5C12.991,6.375 12.4,6.312 11.738,6.312L7.77,6.312L7.77,17.687L12.121,17.687ZM10.113,12.695L12.223,12.695C12.624,12.695 12.947,12.763 13.192,12.898C13.436,13.029 13.613,13.216 13.723,13.461C13.837,13.706 13.895,13.995 13.895,14.328C13.895,14.625 13.832,14.888 13.707,15.117C13.582,15.346 13.389,15.529 13.129,15.664C12.869,15.794 12.533,15.859 12.121,15.859L10.113,15.859L10.113,12.695ZM11.738,11.086L10.113,11.086L10.113,8.148L11.738,8.148C12.176,8.148 12.533,8.198 12.809,8.297C13.09,8.396 13.296,8.555 13.426,8.773C13.561,8.992 13.629,9.279 13.629,9.633C13.629,9.945 13.559,10.211 13.418,10.43C13.283,10.643 13.077,10.807 12.801,10.922C12.525,11.031 12.171,11.086 11.738,11.086Z"/>
</svg>
