<svg viewBox="0 0 24 24" fill="currentColor" xmlns="http://www.w3.org/2000/svg">
    <path d="M15.319 1.19995H8.69216C2.63984 1.19995 1.2002 2.63959 1.2002 8.68111V15.308C1.2002 21.3592 2.62904 22.8 8.68136 22.8H15.3082C21.3595 22.8 22.8002 21.3711 22.8002 15.3188V8.69191C22.8002 2.63959 21.3714 1.19995 15.319 1.19995ZM18.6379 16.6116H17.0622C16.466 16.6116 16.2867 16.1288 15.2175 15.0596C14.2844 14.16 13.8902 14.0476 13.6537 14.0476C13.3275 14.0476 13.2379 14.1373 13.2379 14.5876V16.0046C13.2379 16.388 13.1137 16.6126 12.1125 16.6126C11.1409 16.5473 10.1987 16.2521 9.36348 15.7514C8.52829 15.2506 7.82402 14.5586 7.30868 13.7323C6.08522 12.2095 5.23393 10.4222 4.82252 8.51263C4.82252 8.27611 4.91216 8.06227 5.36252 8.06227H6.93716C7.34216 8.06227 7.48796 8.24263 7.64672 8.65843C8.41136 10.9092 9.716 12.8661 10.2452 12.8661C10.4482 12.8661 10.5368 12.7765 10.5368 12.27V9.95227C10.4698 8.89495 9.90824 8.80531 9.90824 8.42299C9.91545 8.32215 9.96166 8.22809 10.0371 8.16074C10.1125 8.0934 10.2111 8.05808 10.3122 8.06227H12.7875C13.1256 8.06227 13.2379 8.23075 13.2379 8.63575V11.7634C13.2379 12.1015 13.3837 12.2138 13.4852 12.2138C13.6882 12.2138 13.8448 12.1015 14.2164 11.73C15.0143 10.7568 15.6663 9.67263 16.1517 8.51155C16.2013 8.37208 16.2952 8.25268 16.419 8.17156C16.5429 8.09044 16.6898 8.05206 16.8375 8.06227H18.4132C18.8852 8.06227 18.9856 8.29879 18.8852 8.63575C18.3122 9.91926 17.6033 11.1376 16.7706 12.27C16.601 12.5292 16.533 12.6642 16.7706 12.9676C16.9272 13.2042 17.479 13.6653 17.8506 14.1038C18.3905 14.6423 18.8388 15.2654 19.1779 15.9484C19.3129 16.3869 19.0872 16.6116 18.6379 16.6116Z"/>
</svg>
