<svg xmlns="http://www.w3.org/2000/svg" viewBox="0 0 100 100" fill="currentColor">
    <path fill-rule="evenodd" clip-rule="evenodd" d="M96.971 35.0159V64.1029C97.681 95.4889 85.273 97.4299 57.037 96.9419H34.978C8.40203 96.9419 2.12903 90.6209 2.12903 64.0529C1.91063 31.5737 1.16194 15.9871 8.58066 8.57267C16.0059 1.15177 31.6128 1.91735 64.122 2.12594C90.698 2.12594 96.971 8.44794 96.971 35.0159ZM66.5 39.501C67.3 43.089 62.1667 44.3293 59.5 44.501C59.5 41.301 57.4718 37.7897 55.5 37.001C53 36.001 47.6 34.901 44 36.501C39.5 38.501 39.318 42.3984 41 44.501C43 47.001 45.2919 46.8803 49.6781 47.9915C52.9191 48.8126 56.5255 49.7262 59.5 51.001C65.625 53.626 66.3906 56.251 67.1562 58.876C67.113 58.4831 67.2656 59.251 67.1562 58.876C67.5 62.001 67.5996 68.1213 64 71.001C59 75.001 53.5 75.001 48 75.001C40.7889 75.001 36.6667 71.6676 34.5 69.501C32.5 67.001 29.8 64.301 31 61.501C32.2 58.701 36.1667 58.3343 38 58.501C38.0301 58.5611 38.0493 58.7296 38.0782 58.9831C38.2095 60.1351 38.541 63.042 41 65.501C47 69.901 55.593 68.2646 57.5 66C63.1262 59.3188 55.6455 57.5901 47.928 55.2898C44.6719 54.3193 41.5 53.501 39 52.501C36 51.001 30.5 45.501 32 39.501C33.6179 33.0293 37.5 29.501 49.5 29.001C61.5 28.501 65.5 35.0159 66.5 39.501Z"/>
</svg>
