<?xml version="1.0" encoding="UTF-8" standalone="no"?>
<!DOCTYPE svg PUBLIC "-//W3C//DTD SVG 1.1//EN" "http://www.w3.org/Graphics/SVG/1.1/DTD/svg11.dtd">
<svg width="100%" height="100%" viewBox="0 0 101 100" version="1.1" xmlns="http://www.w3.org/2000/svg" xmlns:xlink="http://www.w3.org/1999/xlink" xml:space="preserve" xmlns:serif="http://www.serif.com/" style="fill-rule:evenodd;clip-rule:evenodd;stroke-linejoin:round;stroke-miterlimit:2;">
    <g transform="matrix(1.51405,0,0,1.51405,-26.307,-27.564)">
        <path d="M17.407,31.547C17.397,31.251 17.508,30.964 17.713,30.751C17.919,30.538 18.203,30.418 18.499,30.418C20.705,30.417 25.574,30.417 27.729,30.417C28.318,30.417 28.801,30.883 28.822,31.472C29.432,48.464 36.549,56.42 42.797,58.793C43.129,58.909 43.497,58.858 43.784,58.654C44.071,58.451 44.242,58.121 44.242,57.769C44.25,52.676 44.25,35.955 44.25,31.51C44.25,30.906 44.739,30.417 45.343,30.417L53.907,30.417C54.197,30.417 54.475,30.532 54.68,30.737C54.885,30.942 55,31.22 55,31.51C55,34.438 55,42.442 55,45.584C55,45.915 55.149,46.227 55.406,46.435C55.663,46.643 55.999,46.723 56.322,46.654C62.28,45.213 68.243,38.581 70.602,31.186C70.744,30.729 71.166,30.418 71.644,30.418C73.486,30.417 77.997,30.417 80.253,30.417C80.584,30.417 80.897,30.567 81.105,30.824C81.312,31.082 81.392,31.42 81.321,31.743C79.356,40.277 73.435,46.785 68.554,50.153C68.227,50.363 68.037,50.731 68.054,51.118C68.072,51.506 68.295,51.855 68.639,52.034C73.7,54.887 80.507,60.817 83.66,70.62C83.765,70.95 83.706,71.31 83.501,71.59C83.297,71.87 82.971,72.035 82.624,72.035C80.096,72.042 74.985,72.042 73.033,72.042C72.568,72.042 72.154,71.748 72.001,71.309C69.454,64.147 63.757,58.586 56.264,57.335C55.949,57.285 55.629,57.376 55.386,57.582C55.144,57.789 55.005,58.092 55.005,58.411C55,61.265 55,68.246 55,70.948C55,71.552 54.511,72.042 53.907,72.042C53.788,72.042 53.708,72.042 53.708,72.042C31.249,72.042 18.298,56.869 17.407,31.547Z" style="fill:white;"/>
    </g>
</svg>
