<?xml version="1.0" standalone="no"?>
<!DOCTYPE svg PUBLIC "-//W3C//DTD SVG 20010904//EN"
 "http://www.w3.org/TR/2001/REC-SVG-20010904/DTD/svg10.dtd">
<svg version="1.0" xmlns="http://www.w3.org/2000/svg"
 width="700.000000pt" height="700.000000pt" viewBox="0 0 700.000000 700.000000"
 preserveAspectRatio="xMidYMid meet">
<metadata>
Created by potrace 1.14, written by Peter Selinger 2001-2017
</metadata>
<g transform="translate(0.000000,700.000000) scale(0.100000,-0.100000)"
fill="#000000" stroke="none">
<path d="M279 5521 c-1 -3 -3 -894 -3 -1978 l-2 -1973 21 -1 c52 -3 741 -4
750 -2 7 2 10 236 10 688 l0 685 297 0 297 0 42 -72 c23 -40 68 -118 101 -173
32 -55 192 -332 356 -615 l298 -514 410 -1 c225 0 415 1 422 3 8 3 9 8 3 16
-8 9 -237 397 -293 496 -41 72 -331 566 -346 590 -9 14 -24 39 -33 55 -8 17
-55 96 -102 177 -48 80 -87 151 -87 157 0 6 6 11 13 11 18 0 195 109 254 156
175 141 307 317 406 544 26 58 59 189 72 283 12 88 12 281 0 347 -3 19 -8 49
-11 65 -39 235 -165 474 -347 659 -220 223 -450 342 -757 392 -55 9 -1769 14
-1771 5z m1722 -744 c180 -55 325 -212 375 -407 26 -101 22 -246 -10 -346 -63
-197 -219 -346 -408 -390 -30 -7 -887 -11 -896 -4 -4 3 -8 266 -7 586 l0 580
445 -1 c389 -1 452 -4 501 -18z"/>
<path d="M3693 5521 c-10 -7 -9 -2777 1 -2836 4 -22 11 -69 17 -105 68 -435
384 -808 828 -979 95 -37 249 -78 316 -86 28 -3 61 -8 75 -10 83 -16 323 -22
450 -11 174 16 404 70 520 122 209 96 320 172 468 324 194 199 312 468 338
770 5 63 10 2740 5 2806 -1 8 -114 11 -388 10 l-388 -1 -2 -1300 c0 -715 -4
-1336 -7 -1380 -11 -169 -70 -308 -174 -411 -89 -89 -182 -133 -357 -170 -61
-12 -310 -12 -385 1 -108 19 -118 22 -191 51 -209 83 -342 289 -355 549 -2 44
-4 661 -4 1371 l0 1291 -379 0 c-209 0 -383 -3 -388 -6z"/>
</g>
</svg>
